<svg xmlns="http://www.w3.org/2000/svg" xmlns:xlink="http://www.w3.org/1999/xlink" version="1.1" width="500" height="500" viewBox="-5.56 -5.56 500 500" xml:space="preserve">
   <g transform="matrix(1 0 0 1 250 250)" id="d777de0c-75ac-4bca-b5fc-8ef6c5a9f053">
      <rect style="stroke: none; stroke-width: 1; stroke-dasharray: none; stroke-linecap: butt; stroke-dashoffset: 0; stroke-linejoin: miter; stroke-miterlimit: 4; fill: rgb(255,255,255); fill-rule: nonzero; opacity: 1; visibility: hidden;" vector-effect="non-scaling-stroke"  x="-250" y="-250" rx="0" ry="0" width="500" height="500" />
   </g>
   <g transform="matrix(Infinity NaN NaN Infinity 0 0)" id="75d5965f-17d7-43e3-b1cb-c6e25db5448c"></g>
   <g transform="matrix(1.35 0 0 1.35 48.9 250)" id="SvgjsG6628">
      <path style="stroke: none; stroke-width: 1; stroke-dasharray: none; stroke-linecap: butt; stroke-dashoffset: 0; stroke-linejoin: miter; stroke-miterlimit: 4; fill: rgb(17,17,17); fill-rule: nonzero; opacity: 1;" vector-effect="non-scaling-stroke"  transform=" translate(-50, -50)" d="M 50.85 33.48 C 49.81 41.25 49.24 49.849999999999994 49.14 59.11 C 50.3 54.89 52.230000000000004 46.97 53.76 36.16 C 53.86 35.44 53.96 34.709999999999994 54.059999999999995 33.959999999999994 C 55.029999999999994 26.619999999999994 55.63999999999999 19.129999999999995 55.88999999999999 11.649999999999995 C 54.61 14.99 52.39 22 50.85 33.48 z M 48.32 63 C 44.08 83.15 49.05 91.53 49.63 92.42 C 49.690000000000005 92.51 49.75 92.59 49.81 92.67 C 50.160000000000004 93.15 50.510000000000005 93.4 50.82 93.42 C 50.92 93.42 51.01 93.4 51.09 93.37 C 44.75 80.76999 48.160000000000004 65.58000000000001 48.790000000000006 63.080000000000005 C 48.760000000000005 63.09 48.730000000000004 63.080000000000005 48.690000000000005 63.080000000000005 C 48.67 63.09 48.650000000000006 63.10000000000001 48.620000000000005 63.10000000000001 C 48.59 63.10000000000001 48.56 63.10000000000001 48.53 63.10000000000001 C 48.46 63.080000000000005 48.4 63.05000000000001 48.34 63.010000000000005 C 48.33 63 48.32 63 48.32 63 z M 46.77 9.15 C 46.160000000000004 16.9 46.300000000000004 27.75 47.17 40.81 C 47.25 41.940000000000005 47.33 43.04 47.410000000000004 44.120000000000005 C 47.42 44.260000000000005 47.43000000000001 44.410000000000004 47.440000000000005 44.56 C 47.470000000000006 44.95 47.50000000000001 45.34 47.53000000000001 45.730000000000004 C 47.55000000000001 45.970000000000006 47.57000000000001 46.220000000000006 47.59000000000001 46.470000000000006 C 47.62000000000001 46.790000000000006 47.64000000000001 47.11000000000001 47.67000000000001 47.43000000000001 C 47.69000000000001 47.730000000000004 47.720000000000006 48.03000000000001 47.74000000000001 48.32000000000001 C 47.76000000000001 48.59000000000001 47.790000000000006 48.870000000000005 47.81000000000001 49.14000000000001 C 47.84000000000001 49.46000000000001 47.86000000000001 49.77000000000001 47.89000000000001 50.09000000000001 C 47.91000000000001 50.32000000000001 47.93000000000001 50.56000000000001 47.95000000000001 50.79000000000001 C 47.98000000000001 51.140000000000015 48.01000000000001 51.48000000000001 48.04000000000001 51.820000000000014 C 48.06000000000002 52.000000000000014 48.08000000000001 52.180000000000014 48.09000000000001 52.360000000000014 C 48.13000000000001 52.79000000000001 48.17000000000001 53.210000000000015 48.21000000000001 53.62000000000001 C 48.220000000000006 53.69000000000001 48.220000000000006 53.77000000000001 48.23000000000001 53.84000000000001 C 48.23000000000001 53.89000000000001 48.24000000000001 53.94000000000001 48.24000000000001 53.99000000000001 C 48.25000000000001 53.790000000000006 48.26000000000001 53.60000000000001 48.27000000000001 53.400000000000006 C 48.31000000000001 52.02 48.37000000000001 50.650000000000006 48.44000000000001 49.300000000000004 C 48.460000000000015 48.900000000000006 48.48000000000001 48.49 48.500000000000014 48.080000000000005 C 48.59000000000002 46.510000000000005 48.69000000000001 44.96000000000001 48.81000000000002 43.45 C 48.81000000000002 43.400000000000006 48.820000000000014 43.35 48.820000000000014 43.300000000000004 C 48.930000000000014 41.830000000000005 49.070000000000014 40.39 49.210000000000015 38.970000000000006 C 49.250000000000014 38.59 49.29000000000001 38.21000000000001 49.33000000000001 37.84 C 49.47000000000001 36.510000000000005 49.62000000000001 35.21 49.79000000000001 33.93000000000001 C 49.80000000000001 33.82000000000001 49.81000000000002 33.70000000000001 49.83000000000001 33.59 C 49.80000000000001 33.540000000000006 49.79000000000001 33.49 49.79000000000001 33.43000000000001 C 49.34 22.42 47.72 13.52 46.77 9.15 z M 62.65 55.15 C 61.65 55.879999999999995 60.62 56.589999999999996 59.57 57.26 C 61.980000000000004 56.43 64.98 55.47 68.12 54.629999999999995 C 76.54 50.71 79.9 45.91 81.7 43.32 L 81.96000000000001 42.95 C 82.43 42.290000000000006 82.85000000000001 41.720000000000006 83.21000000000001 41.25 C 80.61000000000001 42.76 76.56 45.41 72.98 47.81 C 69.41000000000001 50.22 66.30000000000001 52.36 65.58 52.86 C 64.63 53.65 63.65 54.41 62.65 55.15 z M 33.86 51.57 C 34.38 51.85 34.87 52.14 35.36 52.42 C 35.53 52.52 35.7 52.61 35.86 52.71 C 37.16 53.46 38.36 54.19 39.42 54.86 C 37.71 53.08 36.13 51.2 34.69 49.25 C 34.599999999999994 49.15 25.049999999999997 38.37 20.54 34.1 C 20.77 34.65 21.04 35.31 21.33 36.08 L 21.49 36.51 C 22.57 39.4 24.58 44.78 31.769999999999996 50.43 C 32.239999999999995 50.68 32.69 50.93 33.15 51.18 C 33.39 51.31 33.63 51.44 33.86 51.57 z M 57.09 49.57 C 57.45 49.02 57.81 48.46 58.17 47.89 C 58.32 47.67 58.46 47.44 58.61 47.21 C 59.11 46.42 59.62 45.6 60.14 44.76 C 66.18 34.92 70.28 26.33 72.37 19.18 C 70.57000000000001 21.5 67.44999 25.74 64.74000000000001 30.47 C 64.71000000000001 30.59 64.67000000000002 30.7 64.64000000000001 30.81 C 64.40000000000002 31.599999999999998 64.16000000000001 32.37 63.91000000000002 33.14 C 63.80000000000002 33.45 63.70000000000002 33.75 63.600000000000016 34.05 C 63.40000000000001 34.62 63.210000000000015 35.19 63.01000000000001 35.739999999999995 C 62.890000000000015 36.08 62.77000000000001 36.41 62.65000000000001 36.74999999999999 C 62.460000000000015 37.24999999999999 62.280000000000015 37.75999999999999 62.09000000000001 38.24999999999999 C 61.96000000000001 38.599999999999994 61.82000000000001 38.92999999999999 61.69000000000001 39.269999999999996 C 61.500000000000014 39.739999999999995 61.320000000000014 40.209999999999994 61.13000000000001 40.669999999999995 C 60.99000000000001 41.01 60.86000000000001 41.32999999999999 60.72000000000001 41.66 C 60.530000000000015 42.11 60.34000000000001 42.559999999999995 60.15000000000001 42.989999999999995 C 60.01000000000001 43.309999999999995 59.87000000000001 43.629999999999995 59.73000000000001 43.94 C 59.54000000000001 44.37 59.35000000000001 44.8 59.15000000000001 45.22 C 59.02000000000001 45.51 58.88000000000001 45.81 58.750000000000014 46.089999999999996 C 58.55000000000001 46.519999999999996 58.34000000000002 46.94 58.140000000000015 47.36 C 58.02000000000002 47.62 57.890000000000015 47.88 57.77000000000002 48.13 C 57.55000000000002 48.580000000000005 57.33000000000002 49.010000000000005 57.11000000000002 49.43 C 57.04000000000002 49.58 56.96000000000002 49.74 56.880000000000024 49.89 C 56.95 49.78 57.02 49.68 57.09 49.57 z M 64.34 10.22 C 62.230000000000004 14.73 58.310010000000005 23.66 55.050000000000004 34.13 C 54.690000000000005 36.88 54.300000000000004 39.440000000000005 53.900000000000006 41.830000000000005 C 53.88 41.89000000000001 53.870000000000005 41.96000000000001 53.86000000000001 42.02 C 53.760000000000005 42.660000000000004 53.650000000000006 43.27 53.540000000000006 43.870000000000005 C 53.50000000000001 44.1 53.46000000000001 44.330000000000005 53.42000000000001 44.56 C 53.330000000000005 45.06 53.24000000000001 45.550000000000004 53.150000000000006 46.04 C 53.09 46.339999999999996 53.03000000000001 46.64 52.970000000000006 46.94 C 52.89000000000001 47.349999999999994 52.81000000000001 47.76 52.730000000000004 48.16 C 52.660000000000004 48.5 52.6 48.83 52.53 49.16 C 52.46 49.519999999999996 52.38 49.86 52.31 50.209999999999994 C 52.24 50.559999999999995 52.160000000000004 50.89999999999999 52.09 51.239999999999995 C 52.02 51.53999999999999 51.96 51.839999999999996 51.900000000000006 52.12 C 51.870000000000005 52.23 51.85000000000001 52.349999999999994 51.82000000000001 52.46 C 51.870000000000005 52.33 51.91000000000001 52.21 51.96000000000001 52.08 C 52.02000000000001 51.89 52.09000000000001 51.71 52.16000000000001 51.519999999999996 C 52.29000000000001 51.15 52.42000000000001 50.779999999999994 52.55000000000001 50.38999999999999 C 52.60000000000001 50.25999999999999 52.65000000000001 50.11999999999999 52.70000000000001 49.98 C 52.85000000000001 49.55 53.00000000000001 49.129999999999995 53.15000000000001 48.69 C 53.20000000000001 48.54 53.26000000000001 48.39 53.31000000000001 48.25 C 53.46000000000001 47.82 53.60000000000001 47.39 53.76000000000001 46.95 C 53.960000000000015 46.35 54.17000000000001 45.74 54.38000000000001 45.120000000000005 C 57.92 34.76 62.34 20.78 64.34 10.22 z M 57.12 62.13 C 56.93 62.150000000000006 56.72 62.17 56.519999999999996 62.190000000000005 C 56.3 62.21000000000001 56.08 62.220000000000006 55.849999999999994 62.24 C 55.62 62.260000000000005 55.38999999999999 62.28 55.14999999999999 62.300000000000004 C 54.92999999999999 62.31 54.709999999999994 62.330000000000005 54.47999999999999 62.35 C 54.23999999999999 62.36 53.98999999999999 62.38 53.73999999999999 62.39 C 53.48999999999999 62.410000000000004 53.249999999999986 62.43 52.98999999999999 62.44 C 52.75999999999999 62.449999999999996 52.51999999999999 62.47 52.26999999999999 62.48 C 51.96999999999999 62.5 51.66999999999999 62.519999999999996 51.34999999999999 62.529999999999994 C 51.15999999999999 62.53999999999999 50.94999999999999 62.55 50.749999999999986 62.559999999999995 C 50.55999999999999 62.56999999999999 50.36999999999998 62.58 50.16999999999999 62.589999999999996 C 67.20999999999998 67.92999999999999 78.25999999999999 61.629999999999995 82.86999999999999 57.98 C 73.41 61.919999999999995 61.43999999999999 61.769999999999996 60.489999999999995 61.75 C 60.14999999999999 61.8 59.8 61.85 59.44 61.89 C 59.43 61.89 59.419999999999995 61.89 59.4 61.89 C 59.05 61.94 58.69 61.980000000000004 58.32 62.02 C 58.18 62.03 58.02 62.050000000000004 57.87 62.06 C 57.63 62.09 57.38 62.11 57.12 62.13 z M 56.7 48.03 C 56.78 47.88 56.85 47.730000000000004 56.93 47.57 C 57.25 46.910000000000004 57.58 46.24 57.91 45.54 C 57.98 45.39 58.05 45.23 58.12 45.08 C 58.37 44.54 58.62 43.98 58.87 43.41 C 58.989999999999995 43.16 59.099999999999994 42.88999999999999 59.22 42.62 C 59.43 42.15 59.629999999999995 41.66 59.839999999999996 41.169999999999995 C 59.97 40.87 60.089999999999996 40.56999999999999 60.22 40.26 C 60.41 39.79 60.6 39.3 60.8 38.809999999999995 C 60.919999999999995 38.49999999999999 61.05 38.169999999999995 61.169999999999995 37.849999999999994 C 61.35999999999999 37.349999999999994 61.55 36.839999999999996 61.739999999999995 36.32999999999999 C 61.85999999999999 35.99999999999999 61.96999999999999 35.67999999999999 62.089999999999996 35.35999999999999 C 62.29 34.79999999999999 62.48 34.21999999999999 62.68 33.64999999999999 C 62.77 33.35999999999999 62.87 33.06999999999999 62.97 32.779999999999994 C 63.25 31.909999999999993 63.53 31.029999999999994 63.8 30.129999999999995 C 65.24 25.329999999999995 66.28999999999999 20.519999999999996 66.96 15.779999999999996 L 55.33 45.46 C 55.089999999999996 46.14 54.87 46.81 54.64 47.46 C 54.63 47.480000000000004 54.63 47.5 54.62 47.51 C 54.169999999999995 48.809999999999995 53.739999999999995 50.05 53.32 51.23 C 53.31 51.26 53.3 51.29 53.29 51.33 C 53.089999999999996 51.879999999999995 52.9 52.41 52.71 52.93 C 52.7 52.97 52.69 53.01 52.67 53.05 C 52.480000000000004 53.599999999999994 52.29 54.129999999999995 52.1 54.64 L 52.1 54.65 C 51.93 55.12 51.77 55.57 51.61 56.01 C 51.57 56.1 51.54 56.19 51.51 56.28 C 51.199999999999996 57.13 50.91 57.910000000000004 50.66 58.61 C 50.63999999999999 58.65 50.62 58.71 50.599999999999994 58.75 C 51.03999999999999 58.08 51.519999999999996 57.33 52.029999999999994 56.48 C 52.099999999999994 56.379999999999995 52.169999999999995 56.26 52.239999999999995 56.15 C 52.44 55.809999999999995 52.64999999999999 55.47 52.85999999999999 55.11 C 52.959999999999994 54.94 53.059999999999995 54.769999999999996 53.14999999999999 54.6 C 53.33999999999999 54.28 53.53999999999999 53.940000000000005 53.72999999999999 53.6 C 53.83999999999999 53.4 53.95999999999999 53.2 54.06999999999999 53 C 54.25999999999999 52.66 54.459999999999994 52.3 54.66 51.94 C 54.769999999999996 51.73 54.88999999999999 51.519999999999996 55 51.3 C 55.21 50.919999999999995 55.42 50.529999999999994 55.63 50.129999999999995 C 55.74 49.919999999999995 55.85 49.709999999999994 55.96 49.489999999999995 C 56.21 49.02 56.45 48.53 56.7 48.03 z M 66.91 42.91 C 62.989999999999995 48.209999999999994 57.9 53.64 51.739999999999995 59.08 C 51.67999999999999 59.129999999999995 51.60999999999999 59.16 51.529999999999994 59.18 C 51.519999999999996 59.19 51.519999999999996 59.19 51.50999999999999 59.2 C 51.35999999999999 59.43 51.209999999999994 59.650000000000006 51.06999999999999 59.870000000000005 C 55.04999999999999 57.31 64.3 50.650000000000006 71.11999999999999 40.160000000000004 C 71.11999999999999 40.150000000000006 71.11999999999999 40.150000000000006 71.12998999999999 40.14 C 72.88999 37.42 74.38999 34.61 75.58998999999999 31.740000000000002 C 74.45 33.11 72.76 35.07 70.44 37.67 C 69.39 39.4 68.21 41.15 66.91 42.91 z M 56.57 61.18 C 56.73 61.16 56.9 61.15 57.06 61.14 C 57.34 61.11 57.6 61.08 57.86 61.06 C 57.99 61.04 58.12 61.03 58.24 61.02 C 58.53 60.99 58.82 60.96 59.1 60.92 C 59.18 60.910000000000004 59.27 60.9 59.35 60.89 C 59.71 60.85 60.06 60.8 60.39 60.76 C 65.97 59.98 68.97 58.72 72.56 56.66 C 75.10000000000001 55.199999999999996 77.27 54.25 78.91001 53.629999999999995 C 75.99 53.86 72.46 54.51 68.38 55.6 C 64.28 56.690000000000005 60.42999999999999 58 57.83 58.94 C 57.339999999999996 59.12 56.92 59.28 56.53 59.419999999999995 C 56.44 59.459999999999994 56.35 59.489999999999995 56.27 59.519999999999996 C 55.940000000000005 59.63999999999999 55.67 59.74999999999999 55.43 59.839999999999996 C 55.23 59.919999999999995 55.06 59.989999999999995 54.92 60.04 C 54.67 60.14 54.52 60.199999999999996 54.510000000000005 60.21 C 54.36000000000001 60.26 54.21000000000001 60.24 54.080000000000005 60.17 C 54.06 60.160000000000004 54.050000000000004 60.15 54.03000000000001 60.14 C 53.96000000000001 60.09 53.900000000000006 60.03 53.86000000000001 59.95 C 53.75000000000001 59.71 53.85000000000001 59.42 54.09 59.300000000000004 C 57.970000000000006 57.27 61.620000000000005 54.85 64.93 52.1 C 71.76 46.43 76.9 39.58 80.25 31.73 C 77.55 34.56 72.65 39.730000000000004 71.95 40.71 C 71.94001 40.730000000000004 71.93 40.74 71.92 40.76 C 71.48001000000001 41.43 71.04 42.07 70.59 42.71 C 70.5 42.83 70.42 42.95 70.33001 43.07 C 69.90001 43.67 69.46001 44.25 69.02 44.82 C 68.89999999999999 44.97 68.78999999999999 45.12 68.67 45.27 C 68.23001000000001 45.82 67.79 46.36000000000001 67.35000000000001 46.88 C 67.24000000000001 47.02 67.12 47.150000000000006 67.00000000000001 47.29 C 66.57000000000001 47.8 66.13000000000001 48.29 65.69000000000001 48.769999999999996 C 65.58999000000001 48.879999999999995 65.50000000000001 48.989999999999995 65.4 49.089999999999996 C 64.98 49.54 64.57000000000001 49.98 64.16000000000001 50.4 C 64.04 50.519999999999996 63.91999000000001 50.64 63.81000000000001 50.76 C 63.37000000000001 51.21 62.93000000000001 51.64 62.49000000000001 52.059999999999995 C 62.36000000000001 52.19 62.220000000000006 52.31999999999999 62.09000000000001 52.44 C 61.66000000000001 52.849999999999994 61.24000000000001 53.239999999999995 60.82000000000001 53.62 C 60.690000000000005 53.739999999999995 60.56000000000001 53.849999999999994 60.43000000000001 53.97 C 60.010000000000005 54.339999999999996 59.59 54.71 59.190000000000005 55.06 C 59.09 55.14 58.99 55.22 58.900000000000006 55.300000000000004 C 58.52 55.61000000000001 58.150000000000006 55.92 57.790000000000006 56.21 C 57.690000000000005 56.29 57.59 56.38 57.49000000000001 56.46 C 57.09000000000001 56.77 56.71000000000001 57.07 56.34000000000001 57.36 C 56.22000000000001 57.45 56.110000000000014 57.54 56.00000000000001 57.62 C 55.64000000000001 57.9 55.28000000000001 58.16 54.940000000000005 58.41 C 54.84 58.489999999999995 54.74 58.559999999999995 54.650000000000006 58.629999999999995 C 54.410000000000004 58.8 54.190000000000005 58.959999999999994 53.970000000000006 59.12 C 53.86000000000001 59.19 53.75000000000001 59.269999999999996 53.650000000000006 59.339999999999996 C 53.580000000000005 59.379999999999995 53.52 59.43 53.46000000000001 59.47 C 53.17000000000001 59.67 52.89000000000001 59.86 52.620000000000005 60.04 C 52.57000000000001 60.08 52.510000000000005 60.12 52.46000000000001 60.15 C 52.17000000000001 60.339999999999996 51.91000000000001 60.51 51.66000000000001 60.67 C 51.60000000000001 60.71 51.54000000000001 60.75 51.48000000000001 60.79 C 51.24000000000001 60.94 51.03000000000001 61.07 50.84000000000001 61.19 C 50.79000000000001 61.22 50.75000000000001 61.25 50.70000000000001 61.269999999999996 C 50.51000000000001 61.38999999999999 50.34000000000001 61.49999999999999 50.20000000000001 61.58 L 50.19000000000001 61.589999999999996 C 50.40000000000001 61.58 50.62000000000001 61.56999999999999 50.83000000000001 61.559999999999995 C 51.04000000000001 61.55 51.24000000000001 61.53999999999999 51.44000000000001 61.529999999999994 C 51.76000000000001 61.50999999999999 52.070000000000014 61.489999999999995 52.37000000000001 61.46999999999999 C 52.58000000000001 61.459999999999994 52.80000000000001 61.44999999999999 53.000000000000014 61.43999999999999 C 53.29000000000001 61.41999999999999 53.56000000000002 61.39999999999999 53.84000000000002 61.37999999999999 C 54.04000000000002 61.36999999999999 54.250000000000014 61.359999999999985 54.45000000000002 61.33999999999999 C 54.72000000000002 61.32999999999999 54.98000000000002 61.30999999999999 55.240000000000016 61.28999999999999 C 55.420000000000016 61.26999999999999 55.62000000000002 61.25999999999999 55.80000000000002 61.239999999999995 C 56.06 61.22 56.32 61.2 56.57 61.18 z M 60.98 45.31 C 58.66 49.080000000000005 56.419999999999995 52.45 54.519999999999996 55.18 C 60.99 49.06 66.05 43 69.61 37.1 C 72.32 32.61 73.57 29.14 74.14 26.990000000000002 C 69.84 33.52 61.37 44.78 60.98 45.31 z M 43.94 48.38 C 43.9 48.21 43.86 48.02 43.82 47.84 C 43.72 47.370000000000005 43.62 46.900000000000006 43.52 46.42 C 43.46 46.15 43.410000000000004 45.870000000000005 43.35 45.59 C 43.26 45.14 43.18 44.68000000000001 43.09 44.21 C 43.03 43.9 42.980000000000004 43.59 42.92 43.28 C 42.84 42.82 42.77 42.36 42.690000000000005 41.89 C 42.64000000000001 41.56 42.580000000000005 41.22 42.53000000000001 40.89 C 42.46000000000001 40.42 42.39000000000001 39.94 42.32000000000001 39.45 C 42.27000000000001 39.11 42.230000000000004 38.760000000000005 42.18000000000001 38.410000000000004 C 42.120000000000005 37.910000000000004 42.06000000000001 37.410000000000004 42.00000000000001 36.910000000000004 C 41.96000000000001 36.550000000000004 41.910000000000004 36.2 41.88000000000001 35.84 C 41.82000000000001 35.31 41.77000000000001 34.77 41.72000000000001 34.220000000000006 C 41.69000000000001 33.88 41.65000000000001 33.540000000000006 41.63000000000001 33.190000000000005 C 41.58000000000001 32.59 41.540000000000006 31.980000000000004 41.50000000000001 31.370000000000005 C 41.480000000000004 31.060000000000006 41.45000000000001 30.760000000000005 41.440000000000005 30.450000000000003 C 41.39000000000001 29.620000000000005 41.35 28.78 41.330000000000005 27.930000000000003 C 41.32000000000001 27.840000000000003 41.32000000000001 27.750000000000004 41.31 27.660000000000004 C 39.910000000000004 22.460000000000004 37.980000000000004 17.660000000000004 36.84 15.020000000000003 C 37 22.430000000000003 38.75 31.680000000000003 42.06 42.57000000000001 C 42.69 44.62 43.32 46.58 43.94 48.38 z M 32.63 35.82 C 36.540000000000006 47.49 43.800000000000004 55.93 46.97 59.24 C 46.89 58.980000000000004 46.8 58.72 46.71 58.440000000000005 C 46.7 58.440000000000005 46.7 58.440000000000005 46.7 58.440000000000005 C 46.63 58.400000000000006 46.56 58.35 46.510000000000005 58.28000000000001 C 40.42 49.45000000000001 36.18000000000001 41.07000000000001 33.900000000000006 33.36000000000001 C 32.31 30.340000000000007 31.190000000000005 28.080000000000005 30.430000000000007 26.510000000000005 C 30.860000000000007 29.580000000000005 31.580000000000005 32.67 32.60000000000001 35.720000000000006 C 32.61 35.75 32.62 35.79 32.63 35.82 z M 44.02 43.78 C 44.160000000000004 44.52 44.300000000000004 45.24 44.440000000000005 45.94 C 44.49 46.18 44.540000000000006 46.4 44.580000000000005 46.629999999999995 C 44.68000000000001 47.099999999999994 44.78000000000001 47.559999999999995 44.88 48.01 C 44.940000000000005 48.28 45 48.53 45.050000000000004 48.78 C 45.150000000000006 49.19 45.24 49.59 45.330000000000005 49.97 C 45.39000000000001 50.23 45.46000000000001 50.48 45.52 50.73 C 45.61000000000001 51.099999999999994 45.71 51.47 45.800000000000004 51.83 C 45.86000000000001 52.059999999999995 45.92 52.29 45.980000000000004 52.51 C 46.080000000000005 52.89 46.18000000000001 53.25 46.28 53.6 C 46.33 53.79 46.38 53.980000000000004 46.43 54.17 C 46.56 54.620000000000005 46.69 55.06 46.82 55.480000000000004 C 46.84 55.540000000000006 46.86 55.61000000000001 46.87 55.67 C 47.019999999999996 56.160000000000004 47.16 56.620000000000005 47.3 57.050000000000004 C 47.339999999999996 57.18000000000001 47.379999999999995 57.290000000000006 47.419999999999995 57.42 C 47.49999999999999 57.65 47.56999999999999 57.88 47.64999999999999 58.1 C 47.47999999999999 56.5 47.279999999999994 54.5 47.07999999999999 52.21 C 47.06999999999999 52.18 47.06999999999999 52.15 47.06999999999999 52.12 C 46.99999999999999 51.379999999999995 46.92999999999999 50.599999999999994 46.85999999999999 49.8 C 46.83999999999999 49.529999999999994 46.81999999999999 49.26 46.78999999999999 48.989999999999995 C 46.76999999999999 48.64999999999999 46.739999999999995 48.31999999999999 46.709999999999994 47.98 C 46.669999999999995 47.44 46.61999999999999 46.9 46.57999999999999 46.349999999999994 C 46.55999999999999 46.14999999999999 46.54999999999999 45.949999999999996 46.529999999999994 45.739999999999995 C 46.48 45.12 46.42999999999999 44.48 46.38999999999999 43.83 C 46.36999999999999 43.62 46.35999999999999 43.41 46.339999999999996 43.199999999999996 C 46.279999999999994 42.42999999999999 46.23 41.66 46.18 40.87 L 42.98 12.899999999999999 C 42.38999999999999 17.669999999999998 42.169999999999995 22.58 42.309999999999995 27.57 C 42.339999999999996 28.5 42.379999999999995 29.42 42.42999999999999 30.32 C 42.449999999999996 30.62 42.46999999999999 30.91 42.489999999999995 31.21 C 42.529999999999994 31.810000000000002 42.56999999999999 32.42 42.62 33.01 C 42.64 33.35 42.669999999999995 33.68 42.699999999999996 34.019999999999996 C 42.74999999999999 34.559999999999995 42.8 35.099999999999994 42.85999999999999 35.629999999999995 C 42.89999999999999 35.959999999999994 42.92999999999999 36.3 42.96999999999999 36.629999999999995 C 43.029999999999994 37.15 43.08999999999999 37.669999999999995 43.15999999999999 38.17999999999999 C 43.19999999999999 38.49999999999999 43.23999999999999 38.809999999999995 43.27999999999999 39.11999999999999 C 43.359999999999985 39.65999999999999 43.43999999999998 40.18999999999999 43.51999999999999 40.709999999999994 C 43.55999999999999 40.98 43.59999999999999 41.24999999999999 43.639999999999986 41.50999999999999 C 43.749999999999986 42.19999999999999 43.86999999999998 42.88999999999999 43.98999999999999 43.55999999999999 C 44 43.63 44.01 43.71 44.02 43.78 z M 16.45 50.39 C 19.939999999999998 55.01 29.21 63.96 47.730000000000004 62.2 C 47.28 62.080000000000005 46.84 61.96 46.410000000000004 61.84 C 46.36000000000001 61.82 46.290000000000006 61.800000000000004 46.24 61.790000000000006 C 45.800000000000004 61.67000000000001 45.370000000000005 61.550000000000004 44.96 61.43000000000001 C 44.86 61.400000000000006 44.76 61.370000000000005 44.660000000000004 61.35000000000001 C 44.27 61.23000000000001 43.900000000000006 61.13000000000001 43.53 61.02000000000001 C 43.42 60.98000000000001 43.31 60.95000000000001 43.2 60.92000000000001 C 42.85 60.81000000000001 42.510000000000005 60.71000000000001 42.17 60.61000000000001 C 42.06 60.580000000000005 41.95 60.540000000000006 41.84 60.510000000000005 C 41.5 60.410000000000004 41.18000000000001 60.300000000000004 40.86000000000001 60.2 C 40.77 60.17 40.67000000000001 60.14 40.580000000000005 60.11 C 40.28000000000001 60.01 39.99 59.92 39.7 59.82 C 39.6 59.79 39.5 59.76 39.400000000000006 59.72 C 39.06 59.61 38.730000000000004 59.49 38.400000000000006 59.379999999999995 C 38.370000000000005 59.37 38.34 59.35999999999999 38.31 59.349999999999994 C 37.96 59.21999999999999 37.620000000000005 59.099999999999994 37.29 58.96999999999999 C 36.8 58.88 24.8 56.48 16.45 50.39 z M 43.54 8.97 L 45.46 25.79 C 45.27 17.75 45.47 11.129999999999999 46.07 6.02 C 46.1 5.779999999999999 46.29 5.6 46.53 5.579999999999999 C 46.77 5.56 46.99 5.719999999999999 47.050000000000004 5.949999999999999 C 47.080000000000005 6.049999999999999 49.57000000000001 15.42 50.53 28.849999999999998 C 52.81 14.959999999999997 55.88 9.079999999999998 56.02 8.809999999999999 C 56.13 8.61 56.370000000000005 8.509999999999998 56.59 8.569999999999999 C 56.82 8.62 56.970000000000006 8.829999999999998 56.96 9.059999999999999 C 56.81 15.779999999999998 56.36 22.509999999999998 55.63 29.16 C 60.050000000000004 16.259999999999998 64.92 6.719999999999999 64.98 6.609999999999999 C 65.09 6.39 65.34 6.29 65.57 6.36 C 65.80999999999999 6.44 65.94999999999999 6.67 65.91999999999999 6.91 C 64.96 13.440000000000001 62.75999999999999 21.85 60.29999999999999 30.03 L 67.44999999999999 11.8 C 67.53999999999999 11.56 67.77999999999999 11.430000000000001 68.02999999999999 11.49 C 68.26999999999998 11.55 68.42999999999999 11.78 68.40999999999998 12.030000000000001 C 67.93999999999998 16.91 67.03999999999998 21.9 65.73998999999998 26.880000000000003 C 69.36998999999997 21.14 73.03998999999997 16.730000000000004 73.07998999999998 16.680000000000003 C 73.22998999999999 16.500000000000004 73.47998999999999 16.450000000000003 73.68998999999998 16.550000000000004 C 73.89998999999997 16.660000000000004 74.00998999999997 16.890000000000004 73.94997999999998 17.120000000000005 C 72.55 22.93 69.71 29.78 65.48 37.54 C 68.80999 32.98 72.83 27.36 74.69 24.259999999999998 C 74.81 24.069999999999997 75.05 23.97 75.26998999999999 24.04 C 75.48998999999999 24.11 75.62998999999999 24.31 75.61999999999999 24.54 C 75.60999999999999 24.71 75.42999999999999 27.99 72.62998999999999 33.67 C 75.55 30.3 76.76998999999999 28.73 76.77999 28.71 C 76.92999 28.52 77.19999 28.46 77.41999 28.580000000000002 C 77.62998999999999 28.69 77.73 28.950000000000003 77.64999 29.180000000000003 C 76.78999 31.630000000000003 75.70999 34.040000000000006 74.45999 36.410000000000004 C 77.35999000000001 33.290000000000006 81.06999 29.430000000000003 81.30999 29.180000000000003 C 81.46999 29.01 81.73 28.980000000000004 81.92999 29.110000000000003 C 82.12999 29.230000000000004 82.21999000000001 29.480000000000004 82.13999 29.700000000000003 C 79.53999 36.690000000000005 75.60999 42.92 70.41999 48.33 C 75.66999 44.78 82.78999 40.07 84.96999 39.22 C 85.18999 39.129999999999995 85.43999 39.21 85.56998999999999 39.4 C 85.69998999999999 39.6 85.67998999999999 39.86 85.51998999999999 40.03 C 85.50999999999999 40.04 84.46999 41.13 82.77999 43.53 L 82.51998999999999 43.9 C 80.94 46.16 78.19 50.07 72.04 53.69 C 76.24000000000001 52.78 79.74000000000001 52.41 82.48 52.58 C 82.73 52.6 82.93 52.8 82.94999 53.05 C 82.95999 53.3 82.78999 53.529999999999994 82.53999 53.57 C 82.49999 53.58 78.66999 54.3 73.05999 57.53 C 70.84999 58.79 68.78999 59.79 66.23 60.56 C 71.54 60.15 79.49 58.98 85.45 55.62 C 85.66001 55.5 85.93 55.55 86.08 55.73 C 86.24 55.919999999999995 86.24 56.19 86.08 56.37 C 85.95 56.519999999999996 73.41 71.00999999999999 49.72 63.5 C 49.01 66.39 45.86 81.18 52.17 93.28999999999999 C 52.260000000000005 93.47 52.24 93.69 52.11 93.85 C 52.06 93.91001 51.6 94.41999999999999 50.85 94.41999999999999 C 50.83 94.41999999999999 50.82 94.41999999999999 50.800000000000004 94.41999999999999 C 50.17 94.39999999999999 49.56 94.00999999999999 49.010000000000005 93.26999999999998 C 48.940000000000005 93.17999999999998 48.870000000000005 93.08000999999999 48.790000000000006 92.96999999999998 C 48.190000000000005 92.04999999999998 43.09 83.46999999999998 47.24000000000001 63.249999999999986 C 22.34000000000001 65.33999999999999 13.930000000000007 48.36999999999998 13.850000000000009 48.19999999999999 C 13.750000000000009 47.97999999999999 13.81000000000001 47.71999999999999 14.010000000000009 47.57999999999999 C 14.200000000000008 47.43999999999999 14.47000000000001 47.459999999999994 14.64000000000001 47.61999999999999 C 19.54000000000001 52.14999999999999 26.98000000000001 55.01999999999999 32.05000000000001 56.56999999999999 C 29.760000000000012 55.269999999999996 28.02000000000001 53.85999999999999 26.21000000000001 52.14999999999999 C 21.600000000000012 47.80999999999999 18.07000000000001 46.279999999999994 18.030000000000012 46.25999999999999 C 17.80000000000001 46.15999999999999 17.68000000000001 45.90999999999999 17.75000000000001 45.65999999999999 C 17.82000000000001 45.41999999999999 18.06000000000001 45.26999999999999 18.31000000000001 45.30999999999999 C 21.03000000000001 45.73999999999999 24.36000000000001 46.86999999999999 28.23000000000001 48.679999999999986 C 23.170000000000012 43.819999999999986 21.510000000000012 39.399999999999984 20.56000000000001 36.859999999999985 L 20.40000000000001 36.43999999999998 C 19.38000000000001 33.73999999999998 18.66000000000001 32.45999999999999 18.65000000000001 32.44999999999998 C 18.54000000000001 32.23999999999998 18.58000000000001 31.98999999999998 18.75000000000001 31.82999999999998 C 18.920000000000012 31.66999999999998 19.18000000000001 31.65999999999998 19.37000000000001 31.78999999999998 C 21.290000000000013 33.09999999999998 27.080000000000013 39.329999999999984 31.170000000000012 43.829999999999984 C 27.520000000000014 37.43999999999998 25.320000000000014 30.509999999999984 24.62000000000001 23.139999999999983 C 24.600000000000012 22.909999999999982 24.740000000000013 22.689999999999984 24.96000000000001 22.619999999999983 C 25.190000000000012 22.549999999999983 25.43000000000001 22.639999999999983 25.55000000000001 22.849999999999984 C 25.59000000000001 22.919999999999984 28.30000000000001 27.659999999999982 30.36000000000001 31.399999999999984 C 29.74000000000001 28.799999999999983 29.31000000000001 26.199999999999985 29.11000000000001 23.609999999999985 C 29.10000000000001 23.369999999999987 29.26000000000001 23.139999999999986 29.49000000000001 23.089999999999986 C 29.730000000000008 23.029999999999987 29.97000000000001 23.149999999999984 30.070000000000007 23.369999999999987 C 30.180000000000007 23.619999999999987 30.980000000000008 25.439999999999987 32.84000000000001 29.119999999999987 C 31.58000000000001 22.959999999999987 32.25000000000001 19.69999999999999 32.29000000000001 19.539999999999985 C 32.34000000000001 19.309999999999985 32.530000000000015 19.149999999999984 32.76000000000001 19.149999999999984 C 33.000000000000014 19.119999999999983 33.19000000000001 19.289999999999985 33.26000000000001 19.499999999999986 C 34.280000000000015 22.989999999999988 36.74000000000001 29.369999999999983 38.80000000000001 34.539999999999985 C 36.680000000000014 26.009999999999984 35.69000000000001 18.679999999999986 35.84000000000001 12.689999999999984 C 35.85000000000001 12.459999999999983 36.01000000000001 12.259999999999984 36.24000000000001 12.209999999999983 C 36.470000000000006 12.159999999999982 36.69000000000001 12.279999999999983 36.790000000000006 12.479999999999983 C 36.82000000000001 12.539999999999983 39.260000000000005 17.659999999999982 41.290000000000006 24.05999999999998 C 41.32000000000001 18.88999999999998 41.730000000000004 13.81999999999998 42.550000000000004 8.939999999999982 C 42.59 8.699999999999982 42.82000000000001 8.529999999999982 43.06 8.519999999999982 C 43.31 8.53 43.51 8.72 43.54 8.97 z M 44.86 53.98 C 43.76 51.01 42.41 47.15 41.11 42.86 C 41.06 42.76 35.62 29.67 33.08 22.23 C 33.07 24.43 33.379999999999995 28.09 34.86 33.08 C 35.339999999999996 34.71 35.91 36.37 36.57 38.06 C 38.56 43.15 41.33 48.47 44.86 53.98 z M 44.15 57.99 C 44.35 58.160000000000004 44.379999999999995 58.46 44.21 58.67 C 44.17 58.730000000000004 44.11 58.78 44.050000000000004 58.81 C 44.03 58.82 44.010000000000005 58.82 43.99 58.830000000000005 C 43.940000000000005 58.84 43.9 58.86000000000001 43.85 58.86000000000001 C 43.84 58.86000000000001 43.83 58.870000000000005 43.82 58.870000000000005 C 43.81 58.870000000000005 43.8 58.86000000000001 43.79 58.86000000000001 C 43.699999999999996 58.85000000000001 43.61 58.830000000000005 43.53 58.77 C 43.480000000000004 58.730000000000004 37.94 54.81 31.26 51.300000000000004 C 27.560000000000002 49.35 24.28 47.940000000000005 21.480000000000004 47.080000000000005 C 22.930000000000003 48.040000000000006 24.800000000000004 49.45 26.900000000000006 51.43000000000001 C 29.840000000000007 54.20000000000001 32.43000000000001 56.080000000000005 37.64000000000001 58.040000000000006 C 38.790000000000006 58.470000000000006 40.09000000000001 58.910000000000004 41.57000000000001 59.38000000000001 C 41.690000000000005 59.41000000000001 41.81000000000001 59.45000000000001 41.940000000000005 59.49000000000001 C 42.160000000000004 59.56000000000001 42.39000000000001 59.63000000000001 42.620000000000005 59.70000000000001 C 42.830000000000005 59.77000000000001 43.040000000000006 59.83000000000001 43.260000000000005 59.89000000000001 C 43.45 59.95000000000001 43.650000000000006 60.010000000000005 43.85000000000001 60.07000000000001 C 44.12000000000001 60.150000000000006 44.400000000000006 60.230000000000004 44.68000000000001 60.31000000000001 C 44.85000000000001 60.36000000000001 45.03000000000001 60.41000000000001 45.20000000000001 60.46000000000001 C 45.52000000000001 60.55000000000001 45.85000000000001 60.64000000000001 46.19000000000001 60.74000000000001 C 46.35000000000001 60.78000000000001 46.51000000000001 60.83000000000001 46.67000000000001 60.87000000000001 C 46.91000000000001 60.94000000000001 47.14000000000001 61.000000000000014 47.38000000000001 61.070000000000014 C 47.37000000000001 61.06000000000002 47.36000000000001 61.04000000000001 47.35000000000001 61.030000000000015 C 47.24000000000001 60.930000000000014 47.12000000000001 60.81000000000002 46.99000000000001 60.680000000000014 C 46.94000000000001 60.63000000000002 46.89000000000001 60.58000000000001 46.84000000000001 60.530000000000015 C 46.69000000000001 60.38000000000002 46.52000000000001 60.210000000000015 46.34000000000001 60.02000000000002 C 46.29000000000001 59.97000000000002 46.25000000000001 59.920000000000016 46.20000000000001 59.87000000000002 C 45.99000000000001 59.66000000000002 45.78000000000001 59.43000000000002 45.55000000000001 59.18000000000002 C 45.52000000000001 59.15000000000002 45.49000000000001 59.12000000000002 45.47000000000001 59.09000000000002 C 45.23000000000001 58.84000000000002 44.990000000000016 58.570000000000014 44.73000000000001 58.280000000000015 C 44.70000000000001 58.240000000000016 44.67000000000001 58.20000000000002 44.63000000000001 58.16000000000002 C 44.540000000000006 58.05000000000002 44.44000000000001 57.94000000000002 44.34000000000001 57.83000000000002 C 44.17000000000001 57.63000000000002 43.99000000000001 57.42000000000002 43.80000000000001 57.20000000000002 C 43.74000000000001 57.140000000000015 43.69000000000001 57.070000000000014 43.640000000000015 57.01000000000002 C 43.350000000000016 56.670000000000016 43.05000000000001 56.30000000000002 42.740000000000016 55.920000000000016 C 42.69000000000002 55.860000000000014 42.63000000000002 55.79000000000001 42.58000000000002 55.72000000000001 C 42.26000000000002 55.320000000000014 41.93000000000002 54.91000000000001 41.60000000000002 54.48000000000001 C 41.57000000000002 54.430000000000014 41.54000000000002 54.39000000000001 41.50000000000002 54.34000000000001 C 41.17000000000002 53.91000000000001 40.83000000000002 53.45000000000001 40.49000000000002 52.98000000000001 C 40.46000000000002 52.94000000000001 40.43000000000002 52.91000000000001 40.410000000000025 52.87000000000001 C 40.060000000000024 52.390000000000015 39.72000000000003 51.890000000000015 39.370000000000026 51.38000000000001 C 39.310000000000024 51.30000000000001 39.25000000000003 51.21000000000001 39.190000000000026 51.13000000000001 C 38.85000000000002 50.62000000000001 38.510000000000026 50.10000000000001 38.17000000000002 49.56000000000001 C 38.11000000000002 49.470000000000006 38.04000000000002 49.37000000000001 37.980000000000025 49.27000000000001 C 37.64000000000002 48.72000000000001 37.29000000000003 48.16000000000001 36.950000000000024 47.57000000000001 C 36.90000000000003 47.50000000000001 36.86000000000002 47.43000000000001 36.82000000000002 47.35000000000001 C 36.47000000000002 46.75000000000001 36.12000000000002 46.14000000000001 35.78000000000002 45.510000000000005 C 35.770000000000024 45.480000000000004 35.75000000000002 45.46000000000001 35.74000000000002 45.43000000000001 C 35.40000000000002 44.800000000000004 35.060000000000024 44.150000000000006 34.730000000000025 43.480000000000004 C 34.68000000000003 43.38 34.630000000000024 43.28 34.58000000000003 43.17 C 34.260000000000026 42.53 33.96000000000003 41.870000000000005 33.660000000000025 41.190000000000005 C 33.60000000000002 41.07000000000001 33.550000000000026 40.95 33.49000000000002 40.82000000000001 C 33.200000000000024 40.14000000000001 32.910000000000025 39.440000000000005 32.630000000000024 38.730000000000004 C 32.590000000000025 38.63 32.550000000000026 38.53 32.510000000000026 38.42 C 32.22000000000003 37.67 31.940000000000026 36.910000000000004 31.680000000000028 36.13 C 31.25000000000003 35 27.82000000000003 28.870000000000005 25.91000000000003 25.490000000000002 C 27.110000000000028 33.870000000000005 30.330000000000027 41.650000000000006 35.49000000000003 48.650000000000006 C 36.12000000000003 49.49000000000001 36.76000000000003 50.32000000000001 37.43000000000003 51.13 C 39.47 53.58 41.71 55.88 44.15 57.99 z" stroke-linecap="round" />
   </g>
   <g transform="matrix(3.25 0 0 3.25 312.21 249.9)" id="SvgjsG6629">
      <path style="stroke: none; stroke-width: 1; stroke-dasharray: none; stroke-linecap: butt; stroke-dashoffset: 0; stroke-linejoin: miter; stroke-miterlimit: 4; fill: rgb(17,17,17); fill-rule: nonzero; opacity: 1;" vector-effect="non-scaling-stroke"  transform=" translate(-55.37, -26.55)" d="M 11.48 39.72 C 10.4 38.68 10.8 37.44 11.24 36.24 C 11.44 35.800000000000004 11.68 35.4 11.8 34.96 C 12.120000000000001 34.12 13.200000000000001 33.160000000000004 12.32 32.480000000000004 C 11.72 32.00000000000001 10.64 32.84 9.88 33.36000000000001 C 8.56 34.20000000000001 7.48 35.28000000000001 6.440000000000001 36.400000000000006 C 6.040000000000001 36.84 5.600000000000001 37.24000000000001 5.200000000000001 37.68000000000001 C 4.960000000000001 37.88000000000001 4.6800000000000015 37.92000000000001 4.440000000000001 37.760000000000005 C 4.160000000000001 37.56 4.320000000000001 37.32000000000001 4.440000000000001 37.080000000000005 C 4.920000000000002 36.080000000000005 5.400000000000001 35.040000000000006 5.840000000000002 34.00000000000001 C 6.040000000000002 33.52000000000001 6.520000000000001 32.92000000000001 6.000000000000002 32.56000000000001 C 5.600000000000001 32.28000000000001 5.040000000000002 32.76000000000001 4.560000000000002 33.00000000000001 C 2.320000000000002 34.20000000000001 0.9600000000000022 36.32000000000001 -0.6799999999999979 38.120000000000005 C -0.8799999999999979 38.32000000000001 -0.959999999999998 38.56 -1.159999999999998 38.760000000000005 C -1.399999999999998 39.040000000000006 -1.639999999999998 39.52 -2.119999999999998 39.24 C -2.559999999999998 39 -2.279999999999998 38.52 -2.239999999999998 38.160000000000004 C -1.799999999999998 36.120000000000005 -0.6799999999999979 34.36000000000001 2.220446049250313e-15 32.440000000000005 C 0.08000000000000222 32.2 0.3600000000000022 31.960000000000004 0.6400000000000022 32.080000000000005 C 0.8800000000000022 32.2 0.8800000000000022 32.52 0.8000000000000023 32.800000000000004 C 0.28000000000000225 34.080000000000005 -0.3999999999999977 35.480000000000004 -0.8799999999999977 36.720000000000006 C -0.9999999999999977 36.92000000000001 -0.7199999999999976 36.88 -0.5999999999999976 36.760000000000005 C 0.28000000000000236 36.00000000000001 0.9600000000000024 35.00000000000001 1.8400000000000023 34.2 C 2.400000000000002 33.720000000000006 2.9200000000000026 33.24 3.5200000000000022 32.84 C 4.440000000000002 32.24 5.440000000000002 31.120000000000005 6.520000000000002 31.760000000000005 C 7.640000000000002 32.400000000000006 6.680000000000002 33.64000000000001 6.520000000000002 34.60000000000001 C 6.480000000000002 34.84000000000001 6.360000000000002 35.040000000000006 6.480000000000002 35.16000000000001 C 6.560000000000002 35.24000000000001 6.720000000000002 35.20000000000001 6.960000000000003 34.96000000000001 C 8.440000000000003 33.80000000000001 9.360000000000003 32.440000000000005 11.280000000000003 31.840000000000007 C 11.880000000000003 31.640000000000008 12.480000000000002 31.400000000000006 13.000000000000004 31.800000000000008 C 13.600000000000003 32.32000000000001 13.480000000000004 33.040000000000006 13.240000000000004 33.68000000000001 C 12.840000000000003 34.720000000000006 12.280000000000005 35.68000000000001 11.880000000000004 36.720000000000006 C 11.560000000000004 37.60000000000001 11.280000000000005 38.68000000000001 12.120000000000005 39.32000000000001 C 12.840000000000005 39.96000000000001 13.760000000000005 39.52000000000001 14.520000000000005 39.080000000000005 C 15.880000000000004 38.28000000000001 17.920000000000005 36.64000000000001 22.680000000000007 32.480000000000004 C 22.840000000000007 32.32000000000001 23.080000000000005 32.040000000000006 23.28000000000001 32.400000000000006 C 23.360000000000007 32.480000000000004 23.160000000000007 32.760000000000005 23.04000000000001 32.88 C 20.24000000000001 35.52 18.20000000000001 37.480000000000004 14.92000000000001 39.56 C 13.88000000000001 40.2 12.60000000000001 40.84 11.480000000000011 39.72 z M 38.4 32.44 C 38.8 32.76 38.36 33.04 38.16 33.199999999999996 C 36 35.31999999999999 34.12 37.239999999999995 31.559999999999995 38.839999999999996 C 31.079999999999995 39.12 30.639999999999993 39.4 30.159999999999997 39.599999999999994 C 29.239999999999995 39.959999999999994 28.319999999999997 39.99999999999999 27.519999999999996 39.35999999999999 C 26.679999999999996 38.67999999999999 26.719999999999995 37.71999999999999 26.919999999999995 36.79999999999999 C 27.079999999999995 36.11999999999999 27.319999999999993 35.43999999999999 27.519999999999996 34.79999999999999 C 25.759999999999994 35.63999999999999 24.719999999999995 37.43999999999999 23.079999999999995 38.47999999999999 C 22.519999999999996 38.83999999999999 21.999999999999993 39.23999999999999 21.399999999999995 39.51999999999999 C 20.679999999999996 39.83999999999999 19.999999999999996 39.999999999999986 19.359999999999996 39.43999999999999 C 18.759999999999994 38.87999999999999 18.719999999999995 38.11999999999999 18.879999999999995 37.39999999999999 C 19.479999999999997 34.55999999999999 22.879999999999995 31.75999999999999 25.839999999999996 31.679999999999993 C 26.399999999999995 31.679999999999993 26.999999999999996 31.879999999999992 27.519999999999996 32.199999999999996 C 27.759999999999994 32.35999999999999 27.959999999999997 32.76 28.319999999999997 32.559999999999995 C 28.759999999999998 32.31999999999999 29.119999999999997 31.559999999999995 29.599999999999998 32.35999999999999 C 29.959999999999997 32.879999999999995 29.439999999999998 33.31999999999999 29.24 33.79999999999999 C 28.759999999999998 34.79999999999999 28.119999999999997 35.75999999999999 27.88 36.87999999999999 C 27.72 37.59999999999999 27.48 38.27999999999999 28.2 38.83999999999999 C 28.919999999999998 39.35999999999999 29.56 39.11999999999999 30.24 38.75999999999999 C 31.68 38.07999999999999 32.96 37.11999999999999 34.12 35.99999999999999 C 35.32 34.839999999999996 36.4 33.99999999999999 37.599999999999994 32.83999999999999 C 37.8 32.59999999999999 38.07999999999999 32.19999999999999 38.39999999999999 32.43999999999999 z M 26.68 34.24 C 27 33.92 27.36 33.56 27.16 33.04 C 26.88 32.36 26.24 32.68 25.84 32.6 C 23.4 32.6 20.8 34.6 19.88 37.120000000000005 C 19.68 37.760000000000005 19.32 38.400000000000006 20 38.92 C 20.6 39.440000000000005 21.16 38.96 21.6 38.68 C 23.560000000000002 37.52 25.080000000000002 35.84 26.68 34.24 z M 41.84 39.56 C 38.6 41.04 36.64 39.28 37 36.36 C 37.12 35.4 37.32 34.32 37.72 33.36 C 40.6 26.48 44.32 20.16 49.64 14.879999999999999 C 50.72 13.799999999999999 51.92 12.84 53.36 12.239999999999998 C 55.76 11.279999999999998 57.08 12.239999999999998 56.68 14.719999999999999 C 56.24 17.599999999999998 54.56 19.88 52.72 21.96 C 49.12 25.96 44.879999999999995 29.12 40 31.36 C 39.52 31.599999999999998 39.24 31.88 39.04 32.32 C 38.519999999999996 33.52 38.08 34.76 37.88 36.08 C 37.52 38.839999999999996 39.04 40 41.56 38.92 C 44.04 37.84 46.040000000000006 36.04 48.08 34.400000000000006 L 50.519999999999996 32.400000000000006 C 50.63999999999999 32.32000000000001 50.959999999999994 32.2 51.04 32.28000000000001 C 51.36 32.52000000000001 51.12 32.760000000000005 50.92 32.92000000000001 C 47.88 35.24000000000001 45.400000000000006 37.92000000000001 41.84 39.56000000000001 z M 40.480000000000004 30.439999999999998 C 44.28 28.72 47.480000000000004 26.159999999999997 50.52 23.4 C 52.84 21.24 54.760000000000005 18.64 55.800000000000004 15.559999999999999 C 56.120000000000005 14.719999999999999 56.36000000000001 13.639999999999999 55.6 12.919999999999998 C 54.72 12.119999999999997 53.88 12.999999999999998 53.08 13.279999999999998 C 52.64 13.439999999999998 52.239999999999995 13.759999999999998 51.879999999999995 14.039999999999997 C 46.72 18.479999999999997 42.919999999999995 24 40.12 30.159999999999997 C 39.919999999999995 30.479999999999997 40.16 30.599999999999998 40.48 30.439999999999998 z M 57.84 40.28 C 55.84 40.32 55.28 39.84 55.160000000000004 37.76 C 55.120000000000005 37.36 55.36000000000001 36.72 54.92 36.519999999999996 C 54.48 36.31999999999999 54.08 36.76 53.72 37.04 C 52.32 38.08 50.96 39.16 49.28 39.64 C 47.84 40.08 46.52 38.96 46.800000000000004 37.52 C 47.400000000000006 34.6 50.760000000000005 31.240000000000002 53.84 31.560000000000002 C 53.800000000000004 31.560000000000002 54.040000000000006 31.6 54.2 31.520000000000003 C 55.080000000000005 31.280000000000005 55.92 32.52 56.6 31.720000000000002 C 57.160000000000004 31.080000000000002 57.32 30.160000000000004 57.68 29.360000000000003 C 59.52 25.560000000000002 61.16 21.640000000000004 63.96 18.320000000000004 C 64.36 17.840000000000003 64.8 17.320000000000004 65.32000000000001 16.920000000000005 C 66.68 15.960000000000004 67.96000000000001 16.520000000000007 68.2 18.200000000000006 C 68.44 19.840000000000007 67.88000000000001 21.320000000000007 67.12 22.760000000000005 C 64.80000000000001 27.040000000000006 61.36000000000001 30.360000000000007 57.84 33.64000000000001 C 56.800000000000004 34.60000000000001 56.2 35.60000000000001 56 37.00000000000001 C 55.64 39.120000000000005 56.8 40.16000000000001 58.88 39.440000000000005 C 60.400000000000006 38.92 61.72 37.96000000000001 62.84 36.84 C 64.36 35.36000000000001 65.36 34.24 66.88000000000001 32.720000000000006 C 67.04 32.56000000000001 67.44000000000001 32.28000000000001 67.48 32.32000000000001 C 67.92 32.68000000000001 67.44 32.92000000000001 67.28 33.120000000000005 C 65.4 35.440000000000005 63.76 37.160000000000004 61.32 38.92 C 60.32 39.68 59.2 40.24 57.84 40.28 z M 59.92 30.72 C 62.96 27.68 65.96000000000001 24.56 67.28 20.28 C 67.6 19.32 67.92 18.200000000000003 66.92 17.560000000000002 C 65.8 16.840000000000003 65.32000000000001 18.12 64.76 18.720000000000002 C 62.2 21.6 60.720000000000006 25.080000000000002 59.080000000000005 28.480000000000004 C 57.160000000000004 32.56 56.32000000000001 34.52 59.92000000000001 30.720000000000006 z M 47.96 38.56 C 48.64 39.32 49.6 38.84 50.32 38.440000000000005 C 52 37.52 53.56 36.36000000000001 55 35.120000000000005 C 55.68 34.56 56.24 33.92 55.88 33.080000000000005 C 55.52 32.28000000000001 54.6 32.24 53.800000000000004 32.24 C 51.760000000000005 32.24 49.480000000000004 33.84 48.2 36.160000000000004 C 47.800000000000004 36.92 47.32 37.84 47.96 38.56 z M 69.64 28.64 C 69.2 28.68 68.92 28.400000000000002 68.84 27.96 C 68.68 26.96 69.60000000000001 26.8 70.16 26.52 C 70.56 26.32 70.84 26.72 70.96 27.16 C 70.72 27.8 70.47999999999999 28.52 69.64 28.64 z M 67.76 39.68 C 66.28 40.12 65.08 39.12 65.2 37.519999999999996 C 65.64 35.839999999999996 66.44 34.16 67.24000000000001 32.48 C 67.4 32.16 67.68 31.879999999999995 68.00000000000001 32.12 C 68.40000000000002 32.4 68.04000000000002 32.72 67.92000000000002 33 C 67.40000000000002 34.2 66.80000000000001 35.4 66.36000000000001 36.64 C 66.12000000000002 37.36 65.80000000000001 38.2 66.60000000000001 38.88 C 67.12 39.28 68.00000000000001 38.88 68.64000000000001 38.64 C 71.16000000000001 37.6 73.16000000000001 34.68 76.08000000000001 32.52 C 76.28000000000002 32.400000000000006 76.44000000000001 32.080000000000005 76.68 32.400000000000006 C 76.88000000000001 32.64000000000001 76.64 32.84 76.44000000000001 32.96000000000001 C 72.56000000000002 35.760000000000005 71.84000000000002 38.52000000000001 67.76000000000002 39.68000000000001 z M 76.16000000000001 39.92 C 75.24000000000001 39.480000000000004 75.4 38.52 75.4 37.6 C 75.4 36.480000000000004 75.80000000000001 33.84 76.32000000000001 32.32 C 76.4 32.08 76.48 31.72 76.80000000000001 31.8 C 77.12000000000002 31.880000000000003 77.04 32.24 77.00000000000001 32.480000000000004 C 76.76000000000002 33.800000000000004 76.36000000000001 35.28 76.24000000000001 36.56 C 76.16000000000001 37.440000000000005 75.84 38.72 76.72000000000001 39.120000000000005 C 77.48000000000002 39.32000000000001 78.72000000000001 38.400000000000006 80.52000000000001 36.28 C 81.20000000000002 35.480000000000004 81.76 34.32 80.68 33 C 79.4 31.44 79.84 29.28 81.32000000000001 28.2 C 82.64 27.24 84.00000000000001 27.8 84.2 29.439999999999998 C 84.32000000000001 30.56 84.08 31.599999999999998 83.64 32.559999999999995 C 83.16 33.63999999999999 83.6 33.76 84.56 33.8 C 85.72 33.839999999999996 87.12 33.44 89.16 32.4 C 89.39999999999999 32.32 89.8 32.199999999999996 89.88 32.4 C 90.08 32.8 89.64 32.879999999999995 89.36 33 C 87.16 34 85.84 34.88 83.24 34.56 C 82.47999999999999 34.480000000000004 82.24 35.080000000000005 81.88 35.56 C 80.92 36.92 79.92 38.24 78.56 39.24 C 77.8 39.72 77.08 40.32 76.16 39.92 z M 82.16000000000001 33.24 C 82.84000000000002 33.32 83.52000000000001 31.28 83.52000000000001 30.080000000000002 C 83.52000000000001 29.400000000000002 83.52000000000001 28.64 82.68 28.520000000000003 C 82 28.400000000000002 81.44000000000001 28.92 81.16000000000001 29.560000000000002 C 80.48 30.96 80.92000000000002 33.24 82.16000000000001 33.24 z M 90.04 39.8 C 87.4 39.8 86.32000000000001 38.279999999999994 87.08000000000001 35.76 C 87.60000000000001 34.199999999999996 88.48000000000002 32.92 89.80000000000001 31.959999999999997 C 90.76 31.279999999999998 91.84000000000002 31.199999999999996 92.76 31.919999999999998 C 93.48 32.48 93.24000000000001 34 92.32000000000001 34.92 C 91.32000000000001 35.92 90.12 36.52 88.64 36.440000000000005 C 87.68 36.36000000000001 87.32000000000001 37.040000000000006 87.8 37.92 C 88.32 38.88 89.75999999999999 39.4 91.16 39 C 93.47999999999999 38.32 95.47999999999999 37 97.2 35.32 C 98.24000000000001 34.32 99.08 33.68 100.12 32.64 C 100.28 32.480000000000004 100.52000000000001 32.2 100.76 32.52 C 100.88000000000001 32.68 100.80000000000001 32.88 100.68 33.040000000000006 C 97.96000000000001 35.84 95.48 38.32000000000001 91.60000000000001 39.60000000000001 C 91.08000000000001 39.760000000000005 90.56 39.760000000000005 90.04 39.80000000000001 z M 88.84 35.68 C 89.88000000000001 36.16 92.4 34.44 92.44 33.04 C 92.39999999999999 32.44 91.92 32.12 91.12 32.24 C 90.32000000000001 32.32 88.52000000000001 34.120000000000005 88.4 34.92 C 88.32000000000001 35.32 88.52000000000001 35.56 88.84 35.68 z M 99.44000000000001 40.88 C 98.84000000000002 40.160000000000004 99.4 39.36 100.48000000000002 38.84 C 101.52000000000002 38.32 101.72000000000001 37.52 101.40000000000002 36.800000000000004 C 100.36000000000001 34.440000000000005 100.04000000000002 33.800000000000004 100.28000000000002 32.84 C 100.52000000000001 32 101.20000000000002 31.440000000000005 102.00000000000001 31.400000000000002 C 102.76000000000002 31.360000000000003 103.28000000000002 31.720000000000002 103.60000000000001 32.36 C 103.88000000000001 32.92 103.80000000000001 33.839999999999996 103.08000000000001 34.32 C 102.92000000000002 34.4 102.64000000000001 34.56 102.48000000000002 34.4 C 102.24000000000002 34.24 102.36000000000001 34.08 102.56000000000002 33.879999999999995 C 103.60000000000002 33.08 102.48000000000002 31.679999999999996 101.60000000000002 32.35999999999999 C 100.64000000000003 33.07999999999999 101.04000000000002 34.239999999999995 102.36000000000003 37.07999999999999 C 102.48000000000003 37.31999999999999 102.76000000000003 37.67999999999999 103.24000000000002 37.43999999999999 C 104.16000000000003 37.03999999999999 105.32000000000002 36.51999999999999 106.44000000000003 35.99999999999999 C 108.48000000000003 35.03999999999999 110.32000000000002 33.879999999999995 112.20000000000003 32.63999999999999 C 112.44000000000003 32.48 112.76000000000003 32.03999999999999 113.04000000000003 32.48 C 113.28000000000003 32.839999999999996 112.88000000000004 33 112.60000000000004 33.199999999999996 C 109.96000000000004 35.08 107.20000000000003 36.63999999999999 104.16000000000004 37.8 C 103.20000000000005 38.16 102.48000000000003 38.8 102.24000000000004 39.72 C 101.96000000000004 40.72 100.20000000000003 41.8 99.44000000000004 40.879999999999995 z M 100.72000000000001 40.44 C 101.64000000000001 40.08 102.00000000000001 38.76 101.20000000000002 39.16 C 99.48000000000002 40 99.96000000000002 40.76 100.72000000000001 40.44 z" stroke-linecap="round" />
   </g>
</svg>