<?xml version="1.0" encoding="UTF-8" standalone="no" ?>
<!DOCTYPE svg PUBLIC "-//W3C//DTD SVG 1.1//EN" "http://www.w3.org/Graphics/SVG/1.1/DTD/svg11.dtd">
<svg xmlns="http://www.w3.org/2000/svg" xmlns:xlink="http://www.w3.org/1999/xlink" version="1.1" width="1080" height="1080" viewBox="0 0 1080 1080" xml:space="preserve">
<desc>Created with Fabric.js 5.2.4</desc>
<defs>
</defs>
<rect x="0" y="0" width="100%" height="100%" fill="transparent"></rect>
<g transform="matrix(1 0 0 1 540 540)" id="19c9e2d5-c548-4339-8248-e35a95f1fbdd"  >
<rect style="stroke: none; stroke-width: 1; stroke-dasharray: none; stroke-linecap: butt; stroke-dashoffset: 0; stroke-linejoin: miter; stroke-miterlimit: 4; fill: rgb(255,255,255); fill-rule: nonzero; opacity: 1; visibility: hidden;" vector-effect="non-scaling-stroke"  x="-540" y="-540" rx="0" ry="0" width="1080" height="1080" />
</g>
<g transform="matrix(1 0 0 1 540 540)" id="1b37bbb3-53de-4e84-ab76-8e174b962b6f"  >
</g>
<g transform="matrix(3.09 0 0 3.09 540 540)" id="SvgjsG4967"  >
<path style="stroke: none; stroke-width: 1; stroke-dasharray: none; stroke-linecap: butt; stroke-dashoffset: 0; stroke-linejoin: miter; stroke-miterlimit: 4; fill: rgb(17,17,17); fill-rule: nonzero; opacity: 1;"  transform=" translate(-55.37, -26.55)" d="M 11.48 39.72 C 10.4 38.68 10.8 37.44 11.24 36.24 C 11.44 35.800000000000004 11.68 35.4 11.8 34.96 C 12.120000000000001 34.12 13.200000000000001 33.160000000000004 12.32 32.480000000000004 C 11.72 32.00000000000001 10.64 32.84 9.88 33.36000000000001 C 8.56 34.20000000000001 7.48 35.28000000000001 6.440000000000001 36.400000000000006 C 6.040000000000001 36.84 5.600000000000001 37.24000000000001 5.200000000000001 37.68000000000001 C 4.960000000000001 37.88000000000001 4.6800000000000015 37.92000000000001 4.440000000000001 37.760000000000005 C 4.160000000000001 37.56 4.320000000000001 37.32000000000001 4.440000000000001 37.080000000000005 C 4.920000000000002 36.080000000000005 5.400000000000001 35.040000000000006 5.840000000000002 34.00000000000001 C 6.040000000000002 33.52000000000001 6.520000000000001 32.92000000000001 6.000000000000002 32.56000000000001 C 5.600000000000001 32.28000000000001 5.040000000000002 32.76000000000001 4.560000000000002 33.00000000000001 C 2.320000000000002 34.20000000000001 0.9600000000000022 36.32000000000001 -0.6799999999999979 38.120000000000005 C -0.8799999999999979 38.32000000000001 -0.959999999999998 38.56 -1.159999999999998 38.760000000000005 C -1.399999999999998 39.040000000000006 -1.639999999999998 39.52 -2.119999999999998 39.24 C -2.559999999999998 39 -2.279999999999998 38.52 -2.239999999999998 38.160000000000004 C -1.799999999999998 36.120000000000005 -0.6799999999999979 34.36000000000001 2.220446049250313e-15 32.440000000000005 C 0.08000000000000222 32.2 0.3600000000000022 31.960000000000004 0.6400000000000022 32.080000000000005 C 0.8800000000000022 32.2 0.8800000000000022 32.52 0.8000000000000023 32.800000000000004 C 0.28000000000000225 34.080000000000005 -0.3999999999999977 35.480000000000004 -0.8799999999999977 36.720000000000006 C -0.9999999999999977 36.92000000000001 -0.7199999999999976 36.88 -0.5999999999999976 36.760000000000005 C 0.28000000000000236 36.00000000000001 0.9600000000000024 35.00000000000001 1.8400000000000023 34.2 C 2.400000000000002 33.720000000000006 2.9200000000000026 33.24 3.5200000000000022 32.84 C 4.440000000000002 32.24 5.440000000000002 31.120000000000005 6.520000000000002 31.760000000000005 C 7.640000000000002 32.400000000000006 6.680000000000002 33.64000000000001 6.520000000000002 34.60000000000001 C 6.480000000000002 34.84000000000001 6.360000000000002 35.040000000000006 6.480000000000002 35.16000000000001 C 6.560000000000002 35.24000000000001 6.720000000000002 35.20000000000001 6.960000000000003 34.96000000000001 C 8.440000000000003 33.80000000000001 9.360000000000003 32.440000000000005 11.280000000000003 31.840000000000007 C 11.880000000000003 31.640000000000008 12.480000000000002 31.400000000000006 13.000000000000004 31.800000000000008 C 13.600000000000003 32.32000000000001 13.480000000000004 33.040000000000006 13.240000000000004 33.68000000000001 C 12.840000000000003 34.720000000000006 12.280000000000005 35.68000000000001 11.880000000000004 36.720000000000006 C 11.560000000000004 37.60000000000001 11.280000000000005 38.68000000000001 12.120000000000005 39.32000000000001 C 12.840000000000005 39.96000000000001 13.760000000000005 39.52000000000001 14.520000000000005 39.080000000000005 C 15.880000000000004 38.28000000000001 17.920000000000005 36.64000000000001 22.680000000000007 32.480000000000004 C 22.840000000000007 32.32000000000001 23.080000000000005 32.040000000000006 23.28000000000001 32.400000000000006 C 23.360000000000007 32.480000000000004 23.160000000000007 32.760000000000005 23.04000000000001 32.88 C 20.24000000000001 35.52 18.20000000000001 37.480000000000004 14.92000000000001 39.56 C 13.88000000000001 40.2 12.60000000000001 40.84 11.480000000000011 39.72 z M 38.4 32.44 C 38.8 32.76 38.36 33.04 38.16 33.199999999999996 C 36 35.31999999999999 34.12 37.239999999999995 31.559999999999995 38.839999999999996 C 31.079999999999995 39.12 30.639999999999993 39.4 30.159999999999997 39.599999999999994 C 29.239999999999995 39.959999999999994 28.319999999999997 39.99999999999999 27.519999999999996 39.35999999999999 C 26.679999999999996 38.67999999999999 26.719999999999995 37.71999999999999 26.919999999999995 36.79999999999999 C 27.079999999999995 36.11999999999999 27.319999999999993 35.43999999999999 27.519999999999996 34.79999999999999 C 25.759999999999994 35.63999999999999 24.719999999999995 37.43999999999999 23.079999999999995 38.47999999999999 C 22.519999999999996 38.83999999999999 21.999999999999993 39.23999999999999 21.399999999999995 39.51999999999999 C 20.679999999999996 39.83999999999999 19.999999999999996 39.999999999999986 19.359999999999996 39.43999999999999 C 18.759999999999994 38.87999999999999 18.719999999999995 38.11999999999999 18.879999999999995 37.39999999999999 C 19.479999999999997 34.55999999999999 22.879999999999995 31.75999999999999 25.839999999999996 31.679999999999993 C 26.399999999999995 31.679999999999993 26.999999999999996 31.879999999999992 27.519999999999996 32.199999999999996 C 27.759999999999994 32.35999999999999 27.959999999999997 32.76 28.319999999999997 32.559999999999995 C 28.759999999999998 32.31999999999999 29.119999999999997 31.559999999999995 29.599999999999998 32.35999999999999 C 29.959999999999997 32.879999999999995 29.439999999999998 33.31999999999999 29.24 33.79999999999999 C 28.759999999999998 34.79999999999999 28.119999999999997 35.75999999999999 27.88 36.87999999999999 C 27.72 37.59999999999999 27.48 38.27999999999999 28.2 38.83999999999999 C 28.919999999999998 39.35999999999999 29.56 39.11999999999999 30.24 38.75999999999999 C 31.68 38.07999999999999 32.96 37.11999999999999 34.12 35.99999999999999 C 35.32 34.839999999999996 36.4 33.99999999999999 37.599999999999994 32.83999999999999 C 37.8 32.59999999999999 38.07999999999999 32.19999999999999 38.39999999999999 32.43999999999999 z M 26.68 34.24 C 27 33.92 27.36 33.56 27.16 33.04 C 26.88 32.36 26.24 32.68 25.84 32.6 C 23.4 32.6 20.8 34.6 19.88 37.120000000000005 C 19.68 37.760000000000005 19.32 38.400000000000006 20 38.92 C 20.6 39.440000000000005 21.16 38.96 21.6 38.68 C 23.560000000000002 37.52 25.080000000000002 35.84 26.68 34.24 z M 41.84 39.56 C 38.6 41.04 36.64 39.28 37 36.36 C 37.12 35.4 37.32 34.32 37.72 33.36 C 40.6 26.48 44.32 20.16 49.64 14.879999999999999 C 50.72 13.799999999999999 51.92 12.84 53.36 12.239999999999998 C 55.76 11.279999999999998 57.08 12.239999999999998 56.68 14.719999999999999 C 56.24 17.599999999999998 54.56 19.88 52.72 21.96 C 49.12 25.96 44.879999999999995 29.12 40 31.36 C 39.52 31.599999999999998 39.24 31.88 39.04 32.32 C 38.519999999999996 33.52 38.08 34.76 37.88 36.08 C 37.52 38.839999999999996 39.04 40 41.56 38.92 C 44.04 37.84 46.040000000000006 36.04 48.08 34.400000000000006 L 50.519999999999996 32.400000000000006 C 50.63999999999999 32.32000000000001 50.959999999999994 32.2 51.04 32.28000000000001 C 51.36 32.52000000000001 51.12 32.760000000000005 50.92 32.92000000000001 C 47.88 35.24000000000001 45.400000000000006 37.92000000000001 41.84 39.56000000000001 z M 40.480000000000004 30.439999999999998 C 44.28 28.72 47.480000000000004 26.159999999999997 50.52 23.4 C 52.84 21.24 54.760000000000005 18.64 55.800000000000004 15.559999999999999 C 56.120000000000005 14.719999999999999 56.36000000000001 13.639999999999999 55.6 12.919999999999998 C 54.72 12.119999999999997 53.88 12.999999999999998 53.08 13.279999999999998 C 52.64 13.439999999999998 52.239999999999995 13.759999999999998 51.879999999999995 14.039999999999997 C 46.72 18.479999999999997 42.919999999999995 24 40.12 30.159999999999997 C 39.919999999999995 30.479999999999997 40.16 30.599999999999998 40.48 30.439999999999998 z M 57.84 40.28 C 55.84 40.32 55.28 39.84 55.160000000000004 37.76 C 55.120000000000005 37.36 55.36000000000001 36.72 54.92 36.519999999999996 C 54.48 36.31999999999999 54.08 36.76 53.72 37.04 C 52.32 38.08 50.96 39.16 49.28 39.64 C 47.84 40.08 46.52 38.96 46.800000000000004 37.52 C 47.400000000000006 34.6 50.760000000000005 31.240000000000002 53.84 31.560000000000002 C 53.800000000000004 31.560000000000002 54.040000000000006 31.6 54.2 31.520000000000003 C 55.080000000000005 31.280000000000005 55.92 32.52 56.6 31.720000000000002 C 57.160000000000004 31.080000000000002 57.32 30.160000000000004 57.68 29.360000000000003 C 59.52 25.560000000000002 61.16 21.640000000000004 63.96 18.320000000000004 C 64.36 17.840000000000003 64.8 17.320000000000004 65.32000000000001 16.920000000000005 C 66.68 15.960000000000004 67.96000000000001 16.520000000000007 68.2 18.200000000000006 C 68.44 19.840000000000007 67.88000000000001 21.320000000000007 67.12 22.760000000000005 C 64.80000000000001 27.040000000000006 61.36000000000001 30.360000000000007 57.84 33.64000000000001 C 56.800000000000004 34.60000000000001 56.2 35.60000000000001 56 37.00000000000001 C 55.64 39.120000000000005 56.8 40.16000000000001 58.88 39.440000000000005 C 60.400000000000006 38.92 61.72 37.96000000000001 62.84 36.84 C 64.36 35.36000000000001 65.36 34.24 66.88000000000001 32.720000000000006 C 67.04 32.56000000000001 67.44000000000001 32.28000000000001 67.48 32.32000000000001 C 67.92 32.68000000000001 67.44 32.92000000000001 67.28 33.120000000000005 C 65.4 35.440000000000005 63.76 37.160000000000004 61.32 38.92 C 60.32 39.68 59.2 40.24 57.84 40.28 z M 59.92 30.72 C 62.96 27.68 65.96000000000001 24.56 67.28 20.28 C 67.6 19.32 67.92 18.200000000000003 66.92 17.560000000000002 C 65.8 16.840000000000003 65.32000000000001 18.12 64.76 18.720000000000002 C 62.2 21.6 60.720000000000006 25.080000000000002 59.080000000000005 28.480000000000004 C 57.160000000000004 32.56 56.32000000000001 34.52 59.92000000000001 30.720000000000006 z M 47.96 38.56 C 48.64 39.32 49.6 38.84 50.32 38.440000000000005 C 52 37.52 53.56 36.36000000000001 55 35.120000000000005 C 55.68 34.56 56.24 33.92 55.88 33.080000000000005 C 55.52 32.28000000000001 54.6 32.24 53.800000000000004 32.24 C 51.760000000000005 32.24 49.480000000000004 33.84 48.2 36.160000000000004 C 47.800000000000004 36.92 47.32 37.84 47.96 38.56 z M 69.64 28.64 C 69.2 28.68 68.92 28.400000000000002 68.84 27.96 C 68.68 26.96 69.60000000000001 26.8 70.16 26.52 C 70.56 26.32 70.84 26.72 70.96 27.16 C 70.72 27.8 70.47999999999999 28.52 69.64 28.64 z M 67.76 39.68 C 66.28 40.12 65.08 39.12 65.2 37.519999999999996 C 65.64 35.839999999999996 66.44 34.16 67.24000000000001 32.48 C 67.4 32.16 67.68 31.879999999999995 68.00000000000001 32.12 C 68.40000000000002 32.4 68.04000000000002 32.72 67.92000000000002 33 C 67.40000000000002 34.2 66.80000000000001 35.4 66.36000000000001 36.64 C 66.12000000000002 37.36 65.80000000000001 38.2 66.60000000000001 38.88 C 67.12 39.28 68.00000000000001 38.88 68.64000000000001 38.64 C 71.16000000000001 37.6 73.16000000000001 34.68 76.08000000000001 32.52 C 76.28000000000002 32.400000000000006 76.44000000000001 32.080000000000005 76.68 32.400000000000006 C 76.88000000000001 32.64000000000001 76.64 32.84 76.44000000000001 32.96000000000001 C 72.56000000000002 35.760000000000005 71.84000000000002 38.52000000000001 67.76000000000002 39.68000000000001 z M 76.16000000000001 39.92 C 75.24000000000001 39.480000000000004 75.4 38.52 75.4 37.6 C 75.4 36.480000000000004 75.80000000000001 33.84 76.32000000000001 32.32 C 76.4 32.08 76.48 31.72 76.80000000000001 31.8 C 77.12000000000002 31.880000000000003 77.04 32.24 77.00000000000001 32.480000000000004 C 76.76000000000002 33.800000000000004 76.36000000000001 35.28 76.24000000000001 36.56 C 76.16000000000001 37.440000000000005 75.84 38.72 76.72000000000001 39.120000000000005 C 77.48000000000002 39.32000000000001 78.72000000000001 38.400000000000006 80.52000000000001 36.28 C 81.20000000000002 35.480000000000004 81.76 34.32 80.68 33 C 79.4 31.44 79.84 29.28 81.32000000000001 28.2 C 82.64 27.24 84.00000000000001 27.8 84.2 29.439999999999998 C 84.32000000000001 30.56 84.08 31.599999999999998 83.64 32.559999999999995 C 83.16 33.63999999999999 83.6 33.76 84.56 33.8 C 85.72 33.839999999999996 87.12 33.44 89.16 32.4 C 89.39999999999999 32.32 89.8 32.199999999999996 89.88 32.4 C 90.08 32.8 89.64 32.879999999999995 89.36 33 C 87.16 34 85.84 34.88 83.24 34.56 C 82.47999999999999 34.480000000000004 82.24 35.080000000000005 81.88 35.56 C 80.92 36.92 79.92 38.24 78.56 39.24 C 77.8 39.72 77.08 40.32 76.16 39.92 z M 82.16000000000001 33.24 C 82.84000000000002 33.32 83.52000000000001 31.28 83.52000000000001 30.080000000000002 C 83.52000000000001 29.400000000000002 83.52000000000001 28.64 82.68 28.520000000000003 C 82 28.400000000000002 81.44000000000001 28.92 81.16000000000001 29.560000000000002 C 80.48 30.96 80.92000000000002 33.24 82.16000000000001 33.24 z M 90.04 39.8 C 87.4 39.8 86.32000000000001 38.279999999999994 87.08000000000001 35.76 C 87.60000000000001 34.199999999999996 88.48000000000002 32.92 89.80000000000001 31.959999999999997 C 90.76 31.279999999999998 91.84000000000002 31.199999999999996 92.76 31.919999999999998 C 93.48 32.48 93.24000000000001 34 92.32000000000001 34.92 C 91.32000000000001 35.92 90.12 36.52 88.64 36.440000000000005 C 87.68 36.36000000000001 87.32000000000001 37.040000000000006 87.8 37.92 C 88.32 38.88 89.75999999999999 39.4 91.16 39 C 93.47999999999999 38.32 95.47999999999999 37 97.2 35.32 C 98.24000000000001 34.32 99.08 33.68 100.12 32.64 C 100.28 32.480000000000004 100.52000000000001 32.2 100.76 32.52 C 100.88000000000001 32.68 100.80000000000001 32.88 100.68 33.040000000000006 C 97.96000000000001 35.84 95.48 38.32000000000001 91.60000000000001 39.60000000000001 C 91.08000000000001 39.760000000000005 90.56 39.760000000000005 90.04 39.80000000000001 z M 88.84 35.68 C 89.88000000000001 36.16 92.4 34.44 92.44 33.04 C 92.39999999999999 32.44 91.92 32.12 91.12 32.24 C 90.32000000000001 32.32 88.52000000000001 34.120000000000005 88.4 34.92 C 88.32000000000001 35.32 88.52000000000001 35.56 88.84 35.68 z M 99.44000000000001 40.88 C 98.84000000000002 40.160000000000004 99.4 39.36 100.48000000000002 38.84 C 101.52000000000002 38.32 101.72000000000001 37.52 101.40000000000002 36.800000000000004 C 100.36000000000001 34.440000000000005 100.04000000000002 33.800000000000004 100.28000000000002 32.84 C 100.52000000000001 32 101.20000000000002 31.440000000000005 102.00000000000001 31.400000000000002 C 102.76000000000002 31.360000000000003 103.28000000000002 31.720000000000002 103.60000000000001 32.36 C 103.88000000000001 32.92 103.80000000000001 33.839999999999996 103.08000000000001 34.32 C 102.92000000000002 34.4 102.64000000000001 34.56 102.48000000000002 34.4 C 102.24000000000002 34.24 102.36000000000001 34.08 102.56000000000002 33.879999999999995 C 103.60000000000002 33.08 102.48000000000002 31.679999999999996 101.60000000000002 32.35999999999999 C 100.64000000000003 33.07999999999999 101.04000000000002 34.239999999999995 102.36000000000003 37.07999999999999 C 102.48000000000003 37.31999999999999 102.76000000000003 37.67999999999999 103.24000000000002 37.43999999999999 C 104.16000000000003 37.03999999999999 105.32000000000002 36.51999999999999 106.44000000000003 35.99999999999999 C 108.48000000000003 35.03999999999999 110.32000000000002 33.879999999999995 112.20000000000003 32.63999999999999 C 112.44000000000003 32.48 112.76000000000003 32.03999999999999 113.04000000000003 32.48 C 113.28000000000003 32.839999999999996 112.88000000000004 33 112.60000000000004 33.199999999999996 C 109.96000000000004 35.08 107.20000000000003 36.63999999999999 104.16000000000004 37.8 C 103.20000000000005 38.16 102.48000000000003 38.8 102.24000000000004 39.72 C 101.96000000000004 40.72 100.20000000000003 41.8 99.44000000000004 40.879999999999995 z M 100.72000000000001 40.44 C 101.64000000000001 40.08 102.00000000000001 38.76 101.20000000000002 39.16 C 99.48000000000002 40 99.96000000000002 40.76 100.72000000000001 40.44 z" stroke-linecap="round" />
</g>
</svg>